<svg xmlns="http://www.w3.org/2000/svg" viewBox="0 0 64 64" role="img" aria-label="Vava">
  <!-- Vava, opponent: curly red hair gathered in a curly bun, round glasses, pearl necklace, the wise one at the table.
       Original drawing for Spincio. -->
  <defs><clipPath id="c"><circle cx="32" cy="32" r="32"/></clipPath></defs>
  <g clip-path="url(#c)">
    <rect width="64" height="64" fill="#b39ddb"/>
    <g fill="#c8441c">
      <circle cx="32" cy="6.5" r="5.5"/><circle cx="27.5" cy="8" r="4"/><circle cx="36.5" cy="8" r="4"/>
      <circle cx="18.5" cy="22" r="6"/><circle cx="16.5" cy="29.5" r="5.5"/><circle cx="18" cy="36" r="4.5"/>
      <circle cx="45.5" cy="22" r="6"/><circle cx="47.5" cy="29.5" r="5.5"/><circle cx="46" cy="36" r="4.5"/>
      <circle cx="23.5" cy="14.5" r="6.5"/><circle cx="32" cy="12.5" r="7"/><circle cx="40.5" cy="14.5" r="6.5"/>
    </g>
    <g stroke="#8f2a0c" stroke-width="1.1" fill="none" stroke-linecap="round">
      <path d="M29.5 5.5 q2.5 -2.6 5 0"/><path d="M13.5 29 q2.5 -2.8 5 0"/><path d="M45.5 29 q2.5 -2.8 5 0"/><path d="M15.5 21 q2.5 -2.8 5 0"/><path d="M43.5 21 q2.5 -2.8 5 0"/>
    </g>
    <path d="M6 66 C8 51 19 46 32 46 C45 46 56 51 58 66 Z" fill="#6a3d9a"/>
    <path d="M24 46 Q32 52 40 46" stroke="#f6f1e7" stroke-width="3" fill="none"/>
    <rect x="27" y="37" width="10" height="11" rx="4" fill="#efc59a"/>
    <g fill="#fffaf0"><circle cx="26.5" cy="48.5" r="1.3"/><circle cx="29.2" cy="49.8" r="1.3"/><circle cx="32" cy="50.3" r="1.3"/><circle cx="34.8" cy="49.8" r="1.3"/><circle cx="37.5" cy="48.5" r="1.3"/></g>
    <circle cx="19.5" cy="30" r="3" fill="#ffdbac"/>
    <circle cx="44.5" cy="30" r="3" fill="#ffdbac"/>
    <ellipse cx="32" cy="29" rx="13" ry="14.5" fill="#ffdbac"/>
    <g fill="#c8441c">
      <circle cx="21.5" cy="20.5" r="4.2"/><circle cx="26.5" cy="17" r="4.8"/><circle cx="32.5" cy="16" r="4.8"/><circle cx="38.5" cy="17" r="4.6"/><circle cx="42.8" cy="20.5" r="4"/>
    </g>
    <g fill="#e8703a"><circle cx="25" cy="15.6" r="1.4"/><circle cx="33.5" cy="14.2" r="1.5"/></g>
    <g stroke="#8f2a0c" stroke-width="1" fill="none" stroke-linecap="round">
      <path d="M24.2 18.6 q2.3 -2.4 4.6 0"/><path d="M30.4 17.8 q2.3 -2.4 4.6 0"/><path d="M36.6 18.6 q2.3 -2.4 4.6 0"/>
    </g>
    <path d="M24 25 Q27 24 30 25" stroke="#a8361a" stroke-width="1.3" fill="none" stroke-linecap="round"/>
    <path d="M34 25 Q37 24 40 25" stroke="#a8361a" stroke-width="1.3" fill="none" stroke-linecap="round"/>
    <path d="M25 29.5 Q27 31 29 29.5" stroke="#2b2b2b" stroke-width="1.5" fill="none" stroke-linecap="round"/>
    <path d="M35 29.5 Q37 31 39 29.5" stroke="#2b2b2b" stroke-width="1.5" fill="none" stroke-linecap="round"/>
    <circle cx="27" cy="29.5" r="4.6" fill="#ffffff" fill-opacity=".25" stroke="#7b4a2e" stroke-width="1.4"/>
    <circle cx="37" cy="29.5" r="4.6" fill="#ffffff" fill-opacity=".25" stroke="#7b4a2e" stroke-width="1.4"/>
    <path d="M31.6 29.2 Q32 28.4 32.4 29.2" stroke="#7b4a2e" stroke-width="1.3" fill="none"/>
    <circle cx="23" cy="35" r="2.2" fill="#f28b82" opacity=".45"/>
    <circle cx="41" cy="35" r="2.2" fill="#f28b82" opacity=".45"/>
    <path d="M28 37.5 Q32 40.5 36 37.5" stroke="#9c4a3c" stroke-width="1.6" fill="none" stroke-linecap="round"/>
    <path d="M22.5 37 Q23.5 38.5 24.8 39" stroke="#d9a77a" stroke-width=".9" fill="none" stroke-linecap="round"/>
    <path d="M41.5 37 Q40.5 38.5 39.2 39" stroke="#d9a77a" stroke-width=".9" fill="none" stroke-linecap="round"/>
  </g>
</svg>
